<svg xmlns="http://www.w3.org/2000/svg" xml:space="preserve" id="Layer_1" x="0" y="0" style="enable-background:new 0 0 102.4 18" version="1.1" viewBox="0 0 102.4 18"><style>.st0{fill:#148bb3}.st1{fill:#333}</style><path id="Path_9" d="M29 5.6v-.2c0-.1 0-.1-.1-.2L25.6.4V.3c-.1-.2-.2-.3-.4-.3H11.1c-.1 0-.1 0-.2.1 0 0-.1 0-.1.1 0 0-.1 0-.1.1l-3.5 5c0 .1-.1.1-.1.2V5.8l11 12.3h.5L28.8 5.7v-.1c.1.1.2 0 .2 0zM18.1 1.3 20.7 5h-5.2l1.6-2.3 1-1.4zm3 4.6-2.6 10.2-3.3-10.2h5.9zm-3.7 9.9L8.6 5.9h5.6l3.2 9.9zM22 5.9h5.6l-8.1 9.9L22 5.9zm.5-.9 2.6-3.7L27.7 5h-5.2zM24.2.9l-2.6 3.7L19 .9h5.2zm-8.6 2.3-1 1.4-2.2-3.1-.4-.6h5.2l-1.6 2.3zm-4.5-1.9 2.2 3.1.4.6H8.5l2.6-3.7z" class="st0"/><path id="Path_1" d="M0 9.1v-.2l4-4.5.6.6-3.4 3.9V9l3.5 3.9-.7.6-4-4.4z" class="st0"/><path id="Path_2" d="m32.3 13.5-.6-.6L35.1 9v-.1L31.6 5l.6-.6 4 4.5V9l-3.9 4.5z" class="st0"/><path d="m62.4 3.8-3.2 9.5-3.3-9.5h-1l-3.3 9.5-3.2-9.5h-1.2l3.7 11h1.2l3.3-9.4 3.2 9.4h1.2l3.7-11z" class="st1"/><path id="Path_4" d="M70.4 14.9c-.8 0-1.6-.1-2.3-.4-1.4-.5-2.5-1.6-3.1-3-.6-1.4-.6-3 0-4.5.6-1.4 1.7-2.4 3-3 1.5-.6 3.1-.6 4.6 0 .7.3 1.3.7 1.8 1.2.6.6 1 1.2 1.3 1.8.6 1.4.6 3 0 4.5-.3.7-.7 1.3-1.2 1.8s-1.2.9-1.8 1.2c-.8.3-1.5.4-2.3.4zm0-1.1c.6 0 1.3-.1 1.8-.3.5-.2 1-.5 1.5-1 .4-.4.7-.9 1-1.4.5-1.2.5-2.5 0-3.6-.2-.5-.6-1-1-1.4-.4-.4-.9-.7-1.5-1-.6-.2-1.2-.3-1.8-.3-.6 0-1.3.1-1.8.3-1.1.4-2 1.3-2.5 2.4-.5 1.2-.5 2.5 0 3.6s1.3 2 2.5 2.4c.5.2 1.1.4 1.8.3z" class="st1"/><path d="M90.8 14.8h1.4l-5.1-6 4.8-5h-1.4l-6.4 6.6V3.8h-1.2v11h1.2v-2.9l2.2-2.3z" class="st1"/><path id="Path_6" d="M94.4 4.7c-.2 0-.4-.1-.6-.2-.2-.1-.2-.4-.2-.6 0-.2.1-.4.2-.6.2-.2.4-.2.6-.2.2 0 .4.1.6.2.2.1.2.3.2.6 0 .2-.1.4-.2.6-.2.1-.4.2-.6.2zm-.6 10.1V6.5H95v8.3h-1.2z" class="st1"/><path d="M102 13.5c-.3.3-.8.4-1.2.4-.4 0-.8-.1-1.1-.4-.3-.3-.4-.7-.4-1.1V7.5h2.5v-1h-2.5V4.7h-1.1v1.8h-1.5v.9h1.5v5.5c.1 1.2 1.2 2.1 2.4 1.9.3 0 .6 0 .9-.1.3-.1.6-.2.8-.4l-.3-.8z" class="st1"/></svg>