<svg xmlns="http://www.w3.org/2000/svg" width="86.479" height="42.906"><g fill="#333" data-name="Group 4"><path d="M69.136 13.354a1.044 1.044 0 0 0 0-.463 1.1 1.1 0 0 0-.176-.484L61.076.868a1.014 1.014 0 0 0 0-.264 1.1 1.1 0 0 0-1.123-.595H26.459a1.081 1.081 0 0 0-.44.132 1.009 1.009 0 0 0-.176.176.982.982 0 0 0-.176.154l-8.434 11.8a1.107 1.107 0 0 0-.2.551 1.081 1.081 0 0 0 0 .507 1.03 1.03 0 0 0 0 .154l26.161 29.42h1.255l24.225-29.26a1.045 1.045 0 0 0 0-.132 3.893 3.893 0 0 0 .462-.157ZM43.13 3.026l6.21 8.809H36.854l3.788-5.373Zm7.046 11.01L43.9 38.259l-7.6-24.223Zm-8.808 23.563L20.58 14.014h13.411Zm11.011-23.563h13.344l-19.4 23.607Zm1.277-2.2L59.8 3.027l6.144 8.809Zm4.03-9.623-6.144 8.809-6.144-8.809ZM37.228 7.584l-2.422 3.435-5.238-7.443-.969-1.365h12.42ZM26.459 3.026l5.264 7.417.969 1.365H20.25Z" data-name="Path 9"/><path d="M0 21.623v-.3l9.564-10.678 1.535 1.44-8.342 9.229v.19l8.315 9.36-1.468 1.4Z" data-name="Path 1"/><path d="m76.875 32.26-1.467-1.4 8.315-9.36v-.186l-8.342-9.225 1.535-1.44 9.564 10.678v.3Z" data-name="Path 2"/></g></svg>