<?xml version="1.0" encoding="utf-8"?>
<!-- Generator: Adobe Illustrator 25.4.1, SVG Export Plug-In . SVG Version: 6.00 Build 0)  -->
<svg version="1.1" id="Layer_1" xmlns="http://www.w3.org/2000/svg" xmlns:xlink="http://www.w3.org/1999/xlink" x="0px" y="0px"
	 viewBox="0 0 70.5 42.9" style="enable-background:new 0 0 70.5 42.9;" xml:space="preserve">
<style type="text/css">
	.st0{fill:#333333;}
</style>
<path id="Path_9" class="st0" d="M51.7,15.4v-0.3c0-0.2,0-0.2-0.2-0.3l-5.8-8.4V6.2c-0.2-0.3-0.3-0.5-0.7-0.5H20.4
	c-0.2,0-0.2,0-0.3,0.2c0,0-0.2,0-0.2,0.2c0,0-0.2,0-0.2,0.2l-6.1,8.7c0,0.2-0.2,0.2-0.2,0.3v0.5l19.2,21.5h0.9l17.8-21.7v-0.2
	C51.5,15.6,51.7,15.4,51.7,15.4z M32.6,7.9l4.5,6.5h-9.1l2.8-4C30.9,10.4,32.6,7.9,32.6,7.9z M37.9,15.9l-4.5,17.8l-5.8-17.8
	C27.6,15.9,37.9,15.9,37.9,15.9z M31.4,33.2L16,15.9h9.8C25.8,15.9,31.4,33.2,31.4,33.2z M39.4,15.9h9.8L35.1,33.2L39.4,15.9z
	 M40.3,14.4l4.5-6.5l4.5,6.5H40.3z M43.3,7.2l-4.5,6.5l-4.5-6.5H43.3z M28.3,11.2l-1.7,2.4l-3.8-5.4l-0.7-1h9.1L28.3,11.2z
	 M20.4,7.9l3.8,5.4l0.7,1h-9.1C15.9,14.4,20.4,7.9,20.4,7.9z"/>
<path id="Path_1" class="st0" d="M1,21.5v-0.3l7-7.9l1,1l-5.9,6.8v0.2l6.1,6.8l-1.2,1C8,29.2,1,21.5,1,21.5z"/>
<path id="Path_2" class="st0" d="M62.7,29.2l-1-1l5.9-6.8v-0.2l-6.1-6.8l1-1l7,7.9v0.2L62.7,29.2z"/>
<rect x="35.9" y="20.8" transform="matrix(0.3732 -0.9278 0.9278 0.3732 14.1314 63.8161)" class="st0" width="36.8" height="1.4"/>
</svg>
