<?xml version="1.0" encoding="utf-8"?>
<!-- Generator: Adobe Illustrator 25.4.1, SVG Export Plug-In . SVG Version: 6.00 Build 0)  -->
<svg version="1.1" id="Layer_1" xmlns="http://www.w3.org/2000/svg" xmlns:xlink="http://www.w3.org/1999/xlink" x="0px" y="0px"
	 viewBox="0 0 102.4 21.6" style="enable-background:new 0 0 102.4 21.6;" xml:space="preserve">
<style type="text/css">
	.st0{fill:#333333;}
	.st1{fill:#148BB3;}
</style>
<path class="st0" d="M62.4,5.6l-3.2,9.5l-3.3-9.5h-1l-3.3,9.5l-3.2-9.5h-1.2l3.7,11h1.2l3.3-9.4l3.2,9.4h1.2l3.7-11
	C63.5,5.6,62.4,5.6,62.4,5.6z"/>
<path id="Path_4" class="st0" d="M70.4,16.7c-0.8,0-1.6-0.1-2.3-0.4c-1.4-0.5-2.5-1.6-3.1-3s-0.6-3,0-4.5c0.6-1.4,1.7-2.4,3-3
	c1.5-0.6,3.1-0.6,4.6,0c0.7,0.3,1.3,0.7,1.8,1.2c0.6,0.6,1,1.2,1.3,1.8c0.6,1.4,0.6,3,0,4.5c-0.3,0.7-0.7,1.3-1.2,1.8
	s-1.2,0.9-1.8,1.2C71.9,16.6,71.2,16.7,70.4,16.7z M70.4,15.6c0.6,0,1.3-0.1,1.8-0.3s1-0.5,1.5-1c0.4-0.4,0.7-0.9,1-1.4
	c0.5-1.2,0.5-2.5,0-3.6c-0.2-0.5-0.6-1-1-1.4s-0.9-0.7-1.5-1c-0.6-0.2-1.2-0.3-1.8-0.3c-0.6,0-1.3,0.1-1.8,0.3
	c-1.1,0.4-2,1.3-2.5,2.4c-0.5,1.2-0.5,2.5,0,3.6s1.3,2,2.5,2.4C69.1,15.5,69.7,15.7,70.4,15.6z"/>
<path class="st0" d="M90.8,16.6h1.4l-5.1-6l4.8-5h-1.4l-6.4,6.6V5.6h-1.2v11h1.2v-2.9l2.2-2.3L90.8,16.6z"/>
<path id="Path_6" class="st0" d="M94.4,6.5c-0.2,0-0.4-0.1-0.6-0.2s-0.2-0.4-0.2-0.6s0.1-0.4,0.2-0.6c0.2-0.2,0.4-0.2,0.6-0.2
	S94.8,5,95,5.1s0.2,0.3,0.2,0.6c0,0.2-0.1,0.4-0.2,0.6C94.8,6.4,94.6,6.5,94.4,6.5z M93.8,16.6V8.3H95v8.3H93.8z"/>
<path class="st0" d="M102,15.3c-0.3,0.3-0.8,0.4-1.2,0.4c-0.4,0-0.8-0.1-1.1-0.4c-0.3-0.3-0.4-0.7-0.4-1.1V9.3h2.5v-1h-2.5V6.5h-1.1
	v1.8h-1.5v0.9h1.5v5.5c0.1,1.2,1.2,2.1,2.4,1.9c0.3,0,0.6,0,0.9-0.1s0.6-0.2,0.8-0.4C102.3,16.1,102,15.3,102,15.3z"/>
<path id="Path_9" class="st1" d="M29.5,7.3V7.2c0-0.1,0-0.1-0.1-0.2l-3.3-4.8V2c-0.1-0.2-0.2-0.3-0.4-0.3H11.6c-0.1,0-0.1,0-0.2,0.1
	c0,0-0.1,0-0.1,0.1c0,0-0.1,0-0.1,0.1l-3.5,5c0,0.1-0.1,0.1-0.1,0.2v0.3l11,12.3h0.5L29.3,7.4V7.3C29.4,7.4,29.5,7.3,29.5,7.3z
	 M18.6,3l2.6,3.7H16l1.6-2.3C17.6,4.4,18.6,3,18.6,3z M21.6,7.6L19,17.8L15.7,7.6C15.7,7.6,21.6,7.6,21.6,7.6z M17.9,17.5L9.1,7.7
	h5.6C14.7,7.7,17.9,17.5,17.9,17.5z M22.5,7.7h5.6L20,17.5L22.5,7.7z M23,6.8L25.6,3l2.6,3.7H23z M24.7,2.6l-2.6,3.7l-2.6-3.7H24.7z
	 M16.1,4.9l-1,1.4l-2.2-3.1l-0.4-0.6h5.2L16.1,4.9z M11.6,3l2.2,3.1l0.4,0.6H9C9,6.7,11.6,3,11.6,3z"/>
<path id="Path_1" class="st1" d="M0.5,10.9v-0.2l4-4.5l0.6,0.6l-3.4,3.9v0.1l3.5,3.9l-0.7,0.6C4.5,15.2,0.5,10.9,0.5,10.9z"/>
<path id="Path_2" class="st1" d="M35.8,15.2l-0.6-0.6l3.4-3.9v-0.1l-3.5-3.9l0.6-0.6l4,4.5v0.1L35.8,15.2z"/>
<rect x="20.5" y="10.4" transform="matrix(0.3732 -0.9278 0.9278 0.3732 9.4116 35.5301)" class="st1" width="21" height="0.8"/>
</svg>
